<?xml version="1.0" standalone="no"?>
<!DOCTYPE svg PUBLIC "-//W3C//DTD SVG 20010904//EN"
 "http://www.w3.org/TR/2001/REC-SVG-20010904/DTD/svg10.dtd">
<svg version="1.0" xmlns="http://www.w3.org/2000/svg"
 width="341.000000pt" height="341.000000pt" viewBox="0 0 341.000000 341.000000"
 preserveAspectRatio="xMidYMid meet">
<metadata>
Created by potrace 1.16, written by Peter Selinger 2001-2019
</metadata>
<g transform="translate(0.000000,341.000000) scale(0.100000,-0.100000)"
fill="#000000" stroke="none">
<path d="M1562 3157 c1 -8 84 -317 183 -685 l180 -671 76 226 c68 202 80 230
112 259 43 40 95 55 186 55 76 0 117 -15 158 -59 34 -37 42 -59 108 -309 33
-122 60 -221 61 -220 2 1 63 187 137 413 l134 411 -73 86 c-200 234 -485 404
-803 479 -117 27 -465 39 -459 15z"/>
<path d="M1027 3005 c-381 -195 -667 -576 -763 -1015 -27 -122 -27 -459 0
-580 129 -591 565 -1027 1156 -1156 122 -27 458 -27 580 0 457 100 824 383
1030 794 103 206 140 360 147 612 3 102 1 195 -4 207 -7 18 -44 -87 -178 -500
-184 -565 -186 -570 -270 -608 -48 -22 -80 -23 -166 -5 -73 15 -102 28 -137
60 -37 33 -46 57 -101 266 -29 107 -54 202 -57 210 -6 17 -124 -333 -124 -368
0 -35 -36 -98 -72 -125 -42 -32 -127 -57 -190 -57 -72 0 -142 41 -173 101 -8
14 -142 507 -300 1095 -328 1225 -294 1104 -303 1104 -4 -1 -38 -16 -75 -35z"/>
</g>
</svg>
